<?xml version="1.0" encoding="UTF-8" standalone="no"?>
<!-- Created with Inkscape (http://www.inkscape.org/) -->

<svg
   xmlns:dc="http://purl.org/dc/elements/1.1/"
   xmlns:cc="http://creativecommons.org/ns#"
   xmlns:rdf="http://www.w3.org/1999/02/22-rdf-syntax-ns#"
   xmlns:svg="http://www.w3.org/2000/svg"
   xmlns="http://www.w3.org/2000/svg"
   xmlns:sodipodi="http://sodipodi.sourceforge.net/DTD/sodipodi-0.dtd"
   xmlns:inkscape="http://www.inkscape.org/namespaces/inkscape"
   width="399.10748mm"
   height="226.86201mm"
   viewBox="0 0 399.10748 226.86201"
   version="1.1"
   id="svg8"
   inkscape:version="0.92.2 (5c3e80d, 2017-08-06)"
   sodipodi:docname="Icon.svg">
  <defs
     id="defs2" />
  <sodipodi:namedview
     id="base"
     pagecolor="#ffffff"
     bordercolor="#666666"
     borderopacity="1.0"
     inkscape:pageopacity="0.0"
     inkscape:pageshadow="2"
     inkscape:zoom="0.49497475"
     inkscape:cx="580.73766"
     inkscape:cy="556.35215"
     inkscape:document-units="mm"
     inkscape:current-layer="layer1"
     showgrid="false"
     fit-margin-top="0"
     fit-margin-left="0"
     fit-margin-right="0"
     fit-margin-bottom="0"
     inkscape:window-width="1920"
     inkscape:window-height="1017"
     inkscape:window-x="-8"
     inkscape:window-y="-8"
     inkscape:window-maximized="1" />
  <metadata
     id="metadata5">
    <rdf:RDF>
      <cc:Work
         rdf:about="">
        <dc:format>image/svg+xml</dc:format>
        <dc:type
           rdf:resource="http://purl.org/dc/dcmitype/StillImage" />
        <dc:title />
      </cc:Work>
    </rdf:RDF>
  </metadata>
  <g
     inkscape:label="Calque 1"
     inkscape:groupmode="layer"
     id="layer1"
     transform="translate(238.18032,-334.60538)">
    <path
       style="fill:#8b4a93;fill-opacity:1;stroke-width:0.26458335"
       d="m -115.84922,560.20776 c 9.40088,-4.73373 -7.40531,0.36114 -12.76702,-2.0584 -4.27802,1.99962 -18.76198,-5.7181 -10.40497,-3.89771 6.04898,1.08624 -0.0337,-1.87221 9.16613,0.0952 -6.97237,-4.55127 -15.23572,-8.15836 -13.21527,-14.86692 -4.73093,-7.37502 7.44375,-14.0968 -2.04714,-19.74691 1.06213,-6.4629 3.16478,-9.87581 5.87658,-10.06883 -1.88526,-9.90604 3.54741,-22.93846 9.01182,-34.66187 5.92125,-14.1563 11.26456,-28.40146 16.99759,-42.5683 -6.22082,-7.31362 -21.95252,3.46971 -30.8329,4.22492 -14.01344,7.6956 -28.21351,14.90634 -42.29628,22.4761 -11.67626,5.8539 -25.14193,8.83004 -37.22298,4.97665 -5.12029,-2.93818 -9.44875,-5.66873 -13.4064,-10.80416 1.71978,-2.06621 7.78986,-13.4892 11.83145,-18.9244 9.23714,-9.54071 21.22736,-17.61258 32.53531,-25.8671 12.22481,-9.93547 26.07066,-17.28306 40.06857,-24.23046 -3.32593,-3.32639 19.87278,-4.55392 26.95279,-5.97212 10.09004,0.52869 7.52851,-0.85034 6.06434,-2.63286 14.2906,1.15187 29.657352,7.88523 37.73968,20.57539 4.146831,-0.18748 9.951341,17.00724 9.490399,7.7238 -0.542927,-7.73568 -4.04394,-14.73231 0.822728,-3.02004 1.252302,4.19451 1.373299,11.24849 3.034747,13.92212 -7.206015,2.06852 -7.636989,6.4605 -1.626216,9.25886 -0.596029,7.10483 4.485452,12.80661 10.483034,12.1023 2.554982,9.25897 1.661756,12.6911 8.06643,3.57079 9.467933,-7.78694 19.026883,-18.39622 29.027766,-23.15315 -0.860682,7.37246 -12.154319,17.42939 1.138097,7.94096 3.114176,-2.87001 2.549365,-11.20489 -0.469751,-10.20873 8.065708,-5.2454 15.7777279,-11.80916 23.716179,-17.16514 12.885711,-7.00086 24.769543,-16.40236 37.930421,-23.37523 0.850431,-0.0906 9.121344,-2.95557 14.858868,-3.84337 -6.491131,-2.23435 5.087335,-2.69158 0.892308,-2.49484 4.539326,-5.85993 8.40935,0.26907 9.42171,-6.64101 0.69316,4.11449 6.711467,-2.51622 8.868278,-0.55759 9.450649,-1.25603 -3.99764,-3.82606 6.568811,-1.96537 -0.87305,6.56528 6.257378,-5.32665 7.767823,1.11795 2.641919,-5.4887 -12.1523,0.32167 -3.488717,-6.71955 1.957426,7.02915 6.342918,-7.024 7.936416,-0.90606 8.484069,-2.73073 6.631197,-5.54344 12.581519,-4.12847 4.68251,-1.5215 7.41491,-3.46183 13.35951,-5.7679 3.24646,-0.98441 25.26515,-10.7123 19.84874,-4.26168 -10.43896,2.85737 -6.88951,2.51417 -16.55222,9.40303 1.31778,-0.65064 -0.002,8.70018 6.22299,4.22012 3.40488,-13.34957 9.54658,2.44205 8.29705,0.17159 0.0406,1.91792 -0.1983,2.29604 4.07475,0.24998 0.31517,5.92374 11.9976,-4.41057 10.83579,3.31032 2.69514,1.47887 14.88783,-0.18274 3.57033,3.82387 -9.06903,6.53165 10.41629,1.60718 -1.42972,7.35469 -7.31514,5.07118 -19.8105,8.67905 -16.58996,13.07671 -11.50773,4.46885 -12.23224,8.34665 -21.19748,11.04386 -7.22744,1.97525 -2.50593,5.85604 -8.13742,5.49351 -1.38585,-3.4005 -13.570918,6.34497 -16.19737,9.51958 6.169659,-0.0339 -10.731019,2.95189 -2.871798,6.83709 7.12888,-5.44611 12.910828,-3.75821 0.975406,0.17237 -6.657584,9.41692 -3.640717,-8.40239 -10.161147,3.50772 2.298402,3.44467 -6.018908,6.45472 -5.736412,3.90855 -7.10262,10.94614 -24.340397,18.61808 -35.34502,28.37714 3.344309,-6.3101 11.744911,-15.70419 16.494058,-16.00981 5.576302,-4.77156 7.267616,-9.62841 9.905413,-11.05037 3.154248,2.68394 19.823667,-17.28973 5.704191,-7.27352 -4.854296,1.71909 -12.649756,6.35094 -13.43495,6.94684 -3.361766,4.47539 -10.568453,9.48132 -13.077458,10.85391 -2.733635,-9.22957 0.03424,4.69594 -6.87834,5.01693 -8.067485,3.45711 -8.777374,16.63171 -14.98857,15.95326 -5.898502,2.30543 -1.487651,13.72974 -8.293392,13.39926 -1.892423,11.05102 -14.22540777,10.25548 -12.1739385,14.6497 -7.5644158,6.55518 -9.2009765,7.63138 -16.8935445,14.03121 -6.17829,10.51286 -16.900272,13.45015 -22.260671,23.1233 -11.737759,4.95645 -18.034731,17.68106 -29.392218,23.66265 -3.98877,8.87879 -24.955646,9.47863 -24.287239,15.8302 -8.58623,1.29012 -16.29766,2.15687 -24.46151,2.91945 z m 31.21532,-10.2169 c 6.434553,-1.31887 19.211295,-11.91504 5.897568,-4.85077 -1.51862,1.28555 -15.590974,7.21926 -5.897568,4.85077 z m -55.59263,-33.01269 c 3.7798,-6.60588 -5.13405,2.12841 0,0 z M -21.861439,500.7682 c 9.223852,-13.97226 -7.200996,4.8279 0,0 z m -114.380351,-0.75114 c 6.23736,-9.76796 -4.2387,-3.99676 0,0 z M 7.748069,472.68004 c 8.287323,-22.15859 -9.1521641,13.34653 0,0 z m 4.409514,-8.5619 c -2.7338565,-5.99293 -3.0705599,3.58604 0,0 z m -53.232607,-22.93723 c 0.0048,-4.97393 -4.155679,2.81236 0,0 z m 2.9053,-1.56921 c 7.788605,-5.65922 -1.895563,-2.57991 -0.91249,0.19844 z m -2.328849,-2.43537 c 8.939985,-6.19241 -5.11933,1.93739 0,0 z m 4.794443,-3.59389 c 15.434686,-8.80494 -3.70048,-3.09343 0,0 z m 83.431919,-7.85795 c 6.864434,-7.32578 8.425272,-9.11378 0.0067,-4.14863 -0.574437,0.63731 -3.654084,8.39875 -0.0067,4.14863 z m 14.004185,-8.29127 c 8.423006,-10.75199 17.738769,-20.33614 28.841198,-28.75148 -0.501291,-0.84825 3.248682,7.74456 3.934784,-1.31352 7.249674,1.75931 10.447014,-13.25009 17.880884,-11.92682 6.2062,-13.97028 -15.979343,6.40602 -22.694839,9.71185 -3.597779,8.31851 -18.09888,7.56849 -18.396923,12.27402 10.792692,-6.6647 -6.820268,9.29423 -11.238369,13.60023 -0.332707,2.13363 -3.350421,9.54564 1.673265,6.40572 z m -4.774195,-0.41928 c 2.902901,-6.78152 -5.080772,0.20049 -1.318917,0.49786 l 1.318869,-0.49786 z m -67.172966,-0.52324 c 8.8733626,-4.71329 1.0853327,-8.96399 -5.560872,-3.01483 1.031019,5.41905 4.048714,-1.24447 4.210238,3.44786 z m 10.23066801,-0.8741 c 5.12827939,-11.62025 -5.96406171,-2.04404 0,0 z M 50.3265,412.81738 c 7.846389,-8.72276 -11.526028,2.4518 0,0 z M 1.708293,408.35209 c -1.00876279,-4.52438 -3.7002298,2.29947 0,0 z m 74.265408,-1.73701 c -1.689632,-3.08508 -3.535971,1.96995 0,0 z M 9.52386,405.39045 c 9.563499,-14.69883 -7.7142189,1.02625 0,0 z m 50.74518,-1.48298 c 4.663175,-10.40972 -8.254036,5.65159 3e-6,0 z m -58.290465,0.44228 c 8.983782,-4.13069 -8.0165215,-0.32966 0,0 z m 96.882802,-6.34096 c 2.550913,-6.25165 -7.650028,6.73387 0,0 z m -11.977053,-0.45024 c 10.664948,-10.97747 -8.481351,-1.91208 -4.428199,2.44559 2.067051,0.36889 2.989251,-1.35668 4.428199,-2.44559 z m 20.786466,-4.09936 c 1.53541,-4.53396 -3.85717,0.97682 0,0 z m -34.312045,-2.24191 c 0.951358,-7.52281 -6.293571,0.71575 0,0 z m 3.115786,-2.68193 c 5.454224,-3.04352 12.681832,-14.80101 3.800316,-5.74374 -3.236646,-1.37732 -8.944002,9.24293 -3.800316,5.74374 z m 25.904589,-0.63241 c 1.29348,-5.49338 -5.104231,0.66814 0,0 z m 2.27695,-4.34318 c -0.92489,-2.03902 -1.43299,1.85398 0,0 z M 89.077429,378.4176 c 8.875422,-12.43097 -9.071393,6.89242 0,0 z m 5.417106,-2.50029 c -1.107843,-6.80766 -2.346846,7.02676 0,0 z m 6.307005,-5.92591 c -1.142575,-3.06173 -1.7667,2.61058 0,0 z m -8.169645,-0.41138 c 0.363527,-4.17993 -4.97876,1.57966 0,0 z m 8.035075,-2.37641 c 4.52601,-6.11109 -7.083706,2.55673 0,0 z M 60.198237,366.5776 c -3.379716,-3.22725 -3.540781,3.68483 0,0 z m 48.629123,-0.2263 c 2.05367,-4.75786 -4.17189,1.55085 0,0 z m 9.75495,-4.22001 c 14.70666,-6.21853 -11.30342,0.59546 0,0 z m -2.37091,-3.731 c 8.83109,-9.02862 -9.71744,0.0218 0,0 z m 10.66856,0.27911 c 10.5724,-4.95402 -12.03106,0.31915 0,0 z m -20.34217,-5.68294 c 12.97833,-5.68989 -6.735573,-2.40461 -4.56878,1.46333 1.18346,2.67699 3.48204,-0.97308 4.56878,-1.46333 z m -6.38308,0.2253 c -0.864988,-3.01479 -2.594467,2.04754 0,0 z m 14.99471,-0.72938 c 2.0518,-3.70947 -3.60544,0.70845 0,0 z m 4.14806,-0.51986 c -1.35663,-3.22935 -3.16586,2.05083 0,0 z m -267.132,189.95937 c -4.4213,-7.52336 4.68464,-23.0333 0.47138,-5.78999 -0.16667,2.21613 2.21624,13.80037 -0.47138,5.78999 z M 22.562109,459.61515 c 1.082956,-3.91546 17.837406,-14.72173 10.444633,-7.79019 -1.28849,0.21714 -12.687516,12.41201 -10.444633,7.79019 z m -91.173374,-39.7914 c -2.709614,-5.82815 4.043639,1.31619 0,0 z M -208.85026,407.59937 c 7.11545,-4.00547 2.30084,1.18334 0,2e-5 z m 308.107295,-0.99039 c 5.554435,-3.26439 13.201135,-6.45767 1.732465,0.0932 l -1.562153,0.83284 z m -302.154175,-2.60491 c 3.93187,-5.71962 12.86389,-5.97576 2.84594,-0.98714 -0.81018,-0.37974 -3.59177,4.19083 -2.84594,0.98714 z m 301.095842,-0.0523 c 4.050188,-9.87156 8.599428,-1.0246 0,0 z M -173.2638,387.40755 c 13.65759,-6.12229 7.39003,0.71279 0,0 z M 70.946618,357.80266 c 1.184515,-1.79395 0.636583,1.42258 0,0 z"
       id="path848"
       inkscape:connector-curvature="0" />
  </g>
</svg>
